<svg width="580" height="361" viewBox="0 0 580 361" fill="none" xmlns="http://www.w3.org/2000/svg">
<g filter="url(#filter0_d_296_714)">
<g clip-path="url(#clip0_296_714)">
<rect x="32.5" y="32.5" width="515" height="296" fill="white"/>
<path d="M289.997 56C292.632 56 295.062 57.6574 296.398 60.3754L336.479 141.697C337.834 144.437 337.834 147.818 336.516 150.558C335.199 153.298 332.731 155 330.078 155H249.916C247.262 155 244.794 153.298 243.477 150.558C242.159 147.818 242.178 144.415 243.514 141.697L283.595 60.3754C284.931 57.6574 287.362 56 289.997 56ZM289.997 84.2857C287.529 84.2857 285.543 86.6502 285.543 89.5893V114.339C285.543 117.278 287.529 119.643 289.997 119.643C292.465 119.643 294.45 117.278 294.45 114.339V89.5893C294.45 86.6502 292.465 84.2857 289.997 84.2857ZM295.934 133.786C295.934 131.91 295.309 130.112 294.195 128.785C293.082 127.459 291.571 126.714 289.997 126.714C288.422 126.714 286.911 127.459 285.798 128.785C284.684 130.112 284.059 131.91 284.059 133.786C284.059 135.661 284.684 137.46 285.798 138.786C286.911 140.112 288.422 140.857 289.997 140.857C291.571 140.857 293.082 140.112 294.195 138.786C295.309 137.46 295.934 135.661 295.934 133.786Z" fill="#DDBA00"/>
<path d="M243.034 210H238.534L246.727 186.727H251.932L260.136 210H255.636L249.42 191.5H249.239L243.034 210ZM243.182 200.875H255.455V204.261H243.182V200.875ZM267.134 186.727V210H263.02V186.727H267.134ZM279.091 210.341C277.341 210.341 275.83 209.977 274.557 209.25C273.292 208.515 272.318 207.477 271.636 206.136C270.955 204.788 270.614 203.201 270.614 201.375C270.614 199.58 270.955 198.004 271.636 196.648C272.326 195.284 273.288 194.223 274.523 193.466C275.758 192.701 277.208 192.318 278.875 192.318C279.951 192.318 280.966 192.492 281.92 192.841C282.883 193.182 283.731 193.712 284.466 194.432C285.208 195.152 285.792 196.068 286.216 197.182C286.64 198.288 286.852 199.606 286.852 201.136V202.398H272.545V199.625H282.909C282.902 198.837 282.731 198.136 282.398 197.523C282.064 196.902 281.598 196.413 281 196.057C280.409 195.701 279.72 195.523 278.932 195.523C278.091 195.523 277.352 195.727 276.716 196.136C276.08 196.538 275.583 197.068 275.227 197.727C274.879 198.379 274.701 199.095 274.693 199.875V202.295C274.693 203.311 274.879 204.182 275.25 204.909C275.621 205.629 276.14 206.182 276.807 206.568C277.473 206.947 278.254 207.136 279.148 207.136C279.746 207.136 280.288 207.053 280.773 206.886C281.258 206.712 281.678 206.458 282.034 206.125C282.39 205.792 282.659 205.379 282.841 204.886L286.682 205.318C286.439 206.333 285.977 207.22 285.295 207.977C284.621 208.727 283.758 209.311 282.705 209.727C281.652 210.136 280.447 210.341 279.091 210.341ZM290.332 210V192.545H294.321V195.455H294.503C294.821 194.447 295.366 193.67 296.139 193.125C296.92 192.572 297.81 192.295 298.81 192.295C299.037 192.295 299.291 192.307 299.571 192.33C299.859 192.345 300.098 192.371 300.287 192.409V196.193C300.113 196.133 299.836 196.08 299.457 196.034C299.086 195.981 298.726 195.955 298.378 195.955C297.628 195.955 296.954 196.117 296.355 196.443C295.764 196.761 295.298 197.205 294.957 197.773C294.616 198.341 294.446 198.996 294.446 199.739V210H290.332ZM312.673 192.545V195.727H302.639V192.545H312.673ZM305.116 188.364H309.23V204.75C309.23 205.303 309.313 205.727 309.48 206.023C309.654 206.311 309.882 206.508 310.162 206.614C310.442 206.72 310.753 206.773 311.094 206.773C311.351 206.773 311.586 206.754 311.798 206.716C312.018 206.678 312.185 206.644 312.298 206.614L312.991 209.83C312.772 209.905 312.457 209.989 312.048 210.08C311.647 210.17 311.154 210.223 310.571 210.239C309.541 210.269 308.613 210.114 307.787 209.773C306.961 209.424 306.306 208.886 305.821 208.159C305.344 207.432 305.109 206.523 305.116 205.432V188.364ZM321.136 210.352C320.03 210.352 319.034 210.155 318.148 209.761C317.269 209.36 316.572 208.769 316.057 207.989C315.549 207.208 315.295 206.246 315.295 205.102C315.295 204.117 315.477 203.303 315.841 202.659C316.205 202.015 316.701 201.5 317.33 201.114C317.958 200.727 318.667 200.436 319.455 200.239C320.25 200.034 321.072 199.886 321.92 199.795C322.943 199.689 323.773 199.595 324.409 199.511C325.045 199.42 325.508 199.284 325.795 199.102C326.091 198.913 326.239 198.621 326.239 198.227V198.159C326.239 197.303 325.985 196.64 325.477 196.17C324.97 195.701 324.239 195.466 323.284 195.466C322.277 195.466 321.477 195.686 320.886 196.125C320.303 196.564 319.909 197.083 319.705 197.682L315.864 197.136C316.167 196.076 316.667 195.189 317.364 194.477C318.061 193.758 318.913 193.22 319.92 192.864C320.928 192.5 322.042 192.318 323.261 192.318C324.102 192.318 324.939 192.417 325.773 192.614C326.606 192.811 327.367 193.136 328.057 193.591C328.746 194.038 329.299 194.648 329.716 195.42C330.14 196.193 330.352 197.159 330.352 198.318V210H326.398V207.602H326.261C326.011 208.087 325.659 208.542 325.205 208.966C324.758 209.383 324.193 209.72 323.511 209.977C322.837 210.227 322.045 210.352 321.136 210.352ZM322.205 207.33C323.03 207.33 323.746 207.167 324.352 206.841C324.958 206.508 325.424 206.068 325.75 205.523C326.083 204.977 326.25 204.383 326.25 203.739V201.682C326.121 201.788 325.902 201.886 325.591 201.977C325.288 202.068 324.947 202.148 324.568 202.216C324.189 202.284 323.814 202.345 323.443 202.398C323.072 202.451 322.75 202.496 322.477 202.534C321.864 202.617 321.314 202.754 320.83 202.943C320.345 203.133 319.962 203.398 319.682 203.739C319.402 204.072 319.261 204.504 319.261 205.034C319.261 205.792 319.538 206.364 320.091 206.75C320.644 207.136 321.348 207.33 322.205 207.33ZM339.523 186.727L339.148 203.159H335.489L335.125 186.727H339.523ZM337.318 210.25C336.629 210.25 336.038 210.008 335.545 209.523C335.061 209.038 334.818 208.447 334.818 207.75C334.818 207.068 335.061 206.485 335.545 206C336.038 205.515 336.629 205.273 337.318 205.273C337.992 205.273 338.576 205.515 339.068 206C339.568 206.485 339.818 207.068 339.818 207.75C339.818 208.212 339.701 208.633 339.466 209.011C339.239 209.39 338.936 209.693 338.557 209.92C338.186 210.14 337.773 210.25 337.318 210.25Z" fill="#3C4954"/>
<path d="M104.906 230.614V229.364H113.633V230.614H109.974V241H108.565V230.614H104.906ZM118.019 241.182C117.178 241.182 116.453 240.996 115.843 240.625C115.237 240.25 114.769 239.727 114.44 239.057C114.114 238.383 113.951 237.598 113.951 236.705C113.951 235.811 114.114 235.023 114.44 234.341C114.769 233.655 115.228 233.121 115.815 232.739C116.406 232.352 117.095 232.159 117.883 232.159C118.337 232.159 118.786 232.235 119.229 232.386C119.673 232.538 120.076 232.784 120.44 233.125C120.803 233.462 121.093 233.909 121.309 234.466C121.525 235.023 121.633 235.708 121.633 236.523V237.091H114.906V235.932H120.269C120.269 235.439 120.171 235 119.974 234.614C119.781 234.227 119.504 233.922 119.144 233.699C118.788 233.475 118.368 233.364 117.883 233.364C117.349 233.364 116.887 233.496 116.496 233.761C116.11 234.023 115.813 234.364 115.604 234.784C115.396 235.205 115.292 235.655 115.292 236.136V236.909C115.292 237.568 115.406 238.127 115.633 238.585C115.864 239.04 116.184 239.386 116.593 239.625C117.002 239.86 117.478 239.977 118.019 239.977C118.371 239.977 118.69 239.928 118.974 239.83C119.262 239.727 119.51 239.576 119.718 239.375C119.926 239.17 120.087 238.917 120.201 238.614L121.496 238.977C121.36 239.417 121.131 239.803 120.809 240.136C120.487 240.466 120.089 240.723 119.616 240.909C119.142 241.091 118.61 241.182 118.019 241.182ZM123.673 241V232.273H124.968V233.636H125.082C125.263 233.17 125.557 232.809 125.962 232.551C126.368 232.29 126.854 232.159 127.423 232.159C127.998 232.159 128.478 232.29 128.86 232.551C129.246 232.809 129.548 233.17 129.763 233.636H129.854C130.078 233.186 130.413 232.828 130.86 232.562C131.307 232.294 131.843 232.159 132.468 232.159C133.248 232.159 133.887 232.403 134.383 232.892C134.879 233.377 135.127 234.133 135.127 235.159V241H133.786V235.159C133.786 234.515 133.61 234.055 133.258 233.778C132.906 233.502 132.491 233.364 132.013 233.364C131.4 233.364 130.924 233.549 130.587 233.92C130.25 234.288 130.082 234.754 130.082 235.318V241H128.718V235.023C128.718 234.527 128.557 234.127 128.235 233.824C127.913 233.517 127.498 233.364 126.991 233.364C126.642 233.364 126.317 233.456 126.013 233.642C125.714 233.828 125.472 234.085 125.286 234.415C125.104 234.741 125.013 235.117 125.013 235.545V241H123.673ZM145.624 241.182C144.806 241.182 144.102 240.989 143.511 240.602C142.92 240.216 142.465 239.684 142.147 239.006C141.829 238.328 141.67 237.553 141.67 236.682C141.67 235.795 141.833 235.013 142.158 234.335C142.488 233.653 142.946 233.121 143.533 232.739C144.124 232.352 144.814 232.159 145.602 232.159C146.215 232.159 146.768 232.273 147.261 232.5C147.753 232.727 148.156 233.045 148.471 233.455C148.785 233.864 148.98 234.341 149.056 234.886H147.715C147.613 234.489 147.386 234.136 147.033 233.83C146.685 233.519 146.215 233.364 145.624 233.364C145.102 233.364 144.643 233.5 144.249 233.773C143.859 234.042 143.554 234.422 143.335 234.915C143.119 235.403 143.011 235.977 143.011 236.636C143.011 237.311 143.117 237.898 143.329 238.398C143.545 238.898 143.848 239.286 144.238 239.562C144.632 239.839 145.094 239.977 145.624 239.977C145.973 239.977 146.289 239.917 146.573 239.795C146.857 239.674 147.098 239.5 147.295 239.273C147.492 239.045 147.632 238.773 147.715 238.455H149.056C148.98 238.97 148.793 239.434 148.494 239.847C148.198 240.256 147.806 240.581 147.317 240.824C146.833 241.062 146.268 241.182 145.624 241.182ZM154.675 241.182C153.835 241.182 153.109 240.996 152.499 240.625C151.893 240.25 151.425 239.727 151.096 239.057C150.77 238.383 150.607 237.598 150.607 236.705C150.607 235.811 150.77 235.023 151.096 234.341C151.425 233.655 151.884 233.121 152.471 232.739C153.062 232.352 153.751 232.159 154.539 232.159C154.994 232.159 155.442 232.235 155.886 232.386C156.329 232.538 156.732 232.784 157.096 233.125C157.46 233.462 157.749 233.909 157.965 234.466C158.181 235.023 158.289 235.708 158.289 236.523V237.091H151.562V235.932H156.925C156.925 235.439 156.827 235 156.63 234.614C156.437 234.227 156.16 233.922 155.8 233.699C155.444 233.475 155.024 233.364 154.539 233.364C154.005 233.364 153.543 233.496 153.153 233.761C152.766 234.023 152.469 234.364 152.261 234.784C152.052 235.205 151.948 235.655 151.948 236.136V236.909C151.948 237.568 152.062 238.127 152.289 238.585C152.52 239.04 152.84 239.386 153.249 239.625C153.658 239.86 154.134 239.977 154.675 239.977C155.028 239.977 155.346 239.928 155.63 239.83C155.918 239.727 156.166 239.576 156.374 239.375C156.583 239.17 156.744 238.917 156.857 238.614L158.153 238.977C158.016 239.417 157.787 239.803 157.465 240.136C157.143 240.466 156.746 240.723 156.272 240.909C155.799 241.091 155.266 241.182 154.675 241.182ZM160.329 241V232.273H161.624V233.591H161.715C161.874 233.159 162.162 232.809 162.579 232.54C162.996 232.271 163.465 232.136 163.988 232.136C164.086 232.136 164.21 232.138 164.357 232.142C164.505 232.146 164.617 232.152 164.692 232.159V233.523C164.647 233.511 164.543 233.494 164.38 233.472C164.221 233.445 164.052 233.432 163.874 233.432C163.45 233.432 163.071 233.521 162.738 233.699C162.408 233.873 162.147 234.116 161.954 234.426C161.764 234.733 161.67 235.083 161.67 235.477V241H160.329ZM170.624 232.273V233.409H166.102V232.273H170.624ZM167.42 230.182H168.761V238.5C168.761 238.879 168.816 239.163 168.925 239.352C169.039 239.538 169.183 239.663 169.357 239.727C169.535 239.788 169.723 239.818 169.92 239.818C170.067 239.818 170.189 239.811 170.283 239.795C170.378 239.777 170.454 239.761 170.511 239.75L170.783 240.955C170.692 240.989 170.566 241.023 170.403 241.057C170.24 241.095 170.033 241.114 169.783 241.114C169.405 241.114 169.033 241.032 168.67 240.869C168.31 240.706 168.011 240.458 167.772 240.125C167.537 239.792 167.42 239.371 167.42 238.864V230.182ZM176.207 241.182C175.366 241.182 174.64 240.996 174.031 240.625C173.424 240.25 172.957 239.727 172.627 239.057C172.301 238.383 172.138 237.598 172.138 236.705C172.138 235.811 172.301 235.023 172.627 234.341C172.957 233.655 173.415 233.121 174.002 232.739C174.593 232.352 175.282 232.159 176.07 232.159C176.525 232.159 176.974 232.235 177.417 232.386C177.86 232.538 178.263 232.784 178.627 233.125C178.991 233.462 179.281 233.909 179.496 234.466C179.712 235.023 179.82 235.708 179.82 236.523V237.091H173.093V235.932H178.457C178.457 235.439 178.358 235 178.161 234.614C177.968 234.227 177.692 233.922 177.332 233.699C176.976 233.475 176.555 233.364 176.07 233.364C175.536 233.364 175.074 233.496 174.684 233.761C174.298 234.023 174 234.364 173.792 234.784C173.584 235.205 173.479 235.655 173.479 236.136V236.909C173.479 237.568 173.593 238.127 173.82 238.585C174.051 239.04 174.371 239.386 174.781 239.625C175.19 239.86 175.665 239.977 176.207 239.977C176.559 239.977 176.877 239.928 177.161 239.83C177.449 239.727 177.697 239.576 177.906 239.375C178.114 239.17 178.275 238.917 178.388 238.614L179.684 238.977C179.548 239.417 179.318 239.803 178.996 240.136C178.674 240.466 178.277 240.723 177.803 240.909C177.33 241.091 176.798 241.182 176.207 241.182ZM181.61 241V239.977L186.565 233.614V233.523H181.769V232.273H188.292V233.341L183.474 239.659V239.75H188.451V241H181.61ZM193.085 241.205C192.531 241.205 192.03 241.1 191.579 240.892C191.128 240.68 190.77 240.375 190.505 239.977C190.24 239.576 190.107 239.091 190.107 238.523C190.107 238.023 190.206 237.617 190.403 237.307C190.6 236.992 190.863 236.746 191.192 236.568C191.522 236.39 191.886 236.258 192.283 236.17C192.685 236.08 193.088 236.008 193.494 235.955C194.024 235.886 194.454 235.835 194.783 235.801C195.117 235.763 195.359 235.701 195.511 235.614C195.666 235.527 195.744 235.375 195.744 235.159V235.114C195.744 234.553 195.59 234.117 195.283 233.807C194.98 233.496 194.52 233.341 193.903 233.341C193.263 233.341 192.761 233.481 192.397 233.761C192.033 234.042 191.778 234.341 191.63 234.659L190.357 234.205C190.585 233.674 190.888 233.261 191.266 232.966C191.649 232.667 192.066 232.458 192.516 232.341C192.971 232.22 193.418 232.159 193.857 232.159C194.138 232.159 194.46 232.193 194.823 232.261C195.191 232.326 195.545 232.46 195.886 232.665C196.23 232.869 196.516 233.178 196.744 233.591C196.971 234.004 197.085 234.557 197.085 235.25V241H195.744V239.818H195.675C195.585 240.008 195.433 240.21 195.221 240.426C195.009 240.642 194.727 240.826 194.374 240.977C194.022 241.129 193.592 241.205 193.085 241.205ZM193.289 240C193.819 240 194.266 239.896 194.63 239.688C194.997 239.479 195.274 239.21 195.46 238.881C195.649 238.551 195.744 238.205 195.744 237.841V236.614C195.687 236.682 195.562 236.744 195.369 236.801C195.179 236.854 194.96 236.902 194.71 236.943C194.463 236.981 194.223 237.015 193.988 237.045C193.757 237.072 193.569 237.095 193.425 237.114C193.077 237.159 192.751 237.233 192.448 237.335C192.149 237.434 191.906 237.583 191.721 237.784C191.539 237.981 191.448 238.25 191.448 238.591C191.448 239.057 191.621 239.409 191.965 239.648C192.314 239.883 192.755 240 193.289 240ZM209.987 244.273V239.659H209.873C209.774 239.818 209.634 240.019 209.452 240.261C209.271 240.5 209.011 240.714 208.674 240.903C208.337 241.089 207.888 241.182 207.327 241.182C206.6 241.182 205.958 240.998 205.401 240.631C204.844 240.259 204.409 239.737 204.094 239.062C203.78 238.384 203.623 237.583 203.623 236.659C203.623 235.742 203.78 234.947 204.094 234.273C204.409 233.598 204.846 233.078 205.407 232.71C205.968 232.343 206.615 232.159 207.35 232.159C207.918 232.159 208.367 232.254 208.697 232.443C209.03 232.629 209.284 232.841 209.458 233.08C209.636 233.314 209.774 233.508 209.873 233.659H210.032V232.273H211.327V244.273H209.987ZM207.509 239.977C208.047 239.977 208.502 239.837 208.873 239.557C209.244 239.273 209.526 238.881 209.719 238.381C209.913 237.877 210.009 237.295 210.009 236.636C210.009 235.985 209.915 235.415 209.725 234.926C209.536 234.434 209.255 234.051 208.884 233.778C208.513 233.502 208.055 233.364 207.509 233.364C206.941 233.364 206.468 233.509 206.089 233.801C205.714 234.089 205.432 234.481 205.242 234.977C205.057 235.47 204.964 236.023 204.964 236.636C204.964 237.258 205.058 237.822 205.248 238.33C205.441 238.833 205.725 239.235 206.1 239.534C206.479 239.83 206.949 239.977 207.509 239.977ZM219.282 237.432V232.273H220.623V241H219.282V239.523H219.191C218.987 239.966 218.668 240.343 218.237 240.653C217.805 240.96 217.259 241.114 216.6 241.114C216.055 241.114 215.57 240.994 215.146 240.756C214.721 240.513 214.388 240.15 214.146 239.665C213.903 239.176 213.782 238.561 213.782 237.818V232.273H215.123V237.727C215.123 238.364 215.301 238.871 215.657 239.25C216.017 239.629 216.475 239.818 217.032 239.818C217.365 239.818 217.704 239.733 218.049 239.562C218.397 239.392 218.689 239.131 218.924 238.778C219.163 238.426 219.282 237.977 219.282 237.432ZM226.738 241.182C225.897 241.182 225.172 240.996 224.562 240.625C223.956 240.25 223.488 239.727 223.158 239.057C222.833 238.383 222.67 237.598 222.67 236.705C222.67 235.811 222.833 235.023 223.158 234.341C223.488 233.655 223.946 233.121 224.533 232.739C225.124 232.352 225.814 232.159 226.602 232.159C227.056 232.159 227.505 232.235 227.948 232.386C228.391 232.538 228.795 232.784 229.158 233.125C229.522 233.462 229.812 233.909 230.028 234.466C230.244 235.023 230.352 235.708 230.352 236.523V237.091H223.624V235.932H228.988C228.988 235.439 228.889 235 228.692 234.614C228.499 234.227 228.223 233.922 227.863 233.699C227.507 233.475 227.086 233.364 226.602 233.364C226.067 233.364 225.605 233.496 225.215 233.761C224.829 234.023 224.531 234.364 224.323 234.784C224.115 235.205 224.011 235.655 224.011 236.136V236.909C224.011 237.568 224.124 238.127 224.352 238.585C224.583 239.04 224.903 239.386 225.312 239.625C225.721 239.86 226.196 239.977 226.738 239.977C227.09 239.977 227.408 239.928 227.692 239.83C227.98 239.727 228.228 239.576 228.437 239.375C228.645 239.17 228.806 238.917 228.92 238.614L230.215 238.977C230.079 239.417 229.85 239.803 229.528 240.136C229.206 240.466 228.808 240.723 228.335 240.909C227.861 241.091 227.329 241.182 226.738 241.182ZM240.187 241.182C239.46 241.182 238.817 240.998 238.261 240.631C237.704 240.259 237.268 239.737 236.954 239.062C236.639 238.384 236.482 237.583 236.482 236.659C236.482 235.742 236.639 234.947 236.954 234.273C237.268 233.598 237.706 233.078 238.266 232.71C238.827 232.343 239.475 232.159 240.21 232.159C240.778 232.159 241.227 232.254 241.556 232.443C241.889 232.629 242.143 232.841 242.317 233.08C242.496 233.314 242.634 233.508 242.732 233.659H242.846V229.364H244.187V241H242.891V239.659H242.732C242.634 239.818 242.494 240.019 242.312 240.261C242.13 240.5 241.871 240.714 241.533 240.903C241.196 241.089 240.747 241.182 240.187 241.182ZM240.369 239.977C240.906 239.977 241.361 239.837 241.732 239.557C242.103 239.273 242.386 238.881 242.579 238.381C242.772 237.877 242.869 237.295 242.869 236.636C242.869 235.985 242.774 235.415 242.585 234.926C242.395 234.434 242.115 234.051 241.744 233.778C241.372 233.502 240.914 233.364 240.369 233.364C239.8 233.364 239.327 233.509 238.948 233.801C238.573 234.089 238.291 234.481 238.102 234.977C237.916 235.47 237.823 236.023 237.823 236.636C237.823 237.258 237.918 237.822 238.107 238.33C238.3 238.833 238.585 239.235 238.96 239.534C239.338 239.83 239.808 239.977 240.369 239.977ZM250.488 241.182C249.647 241.182 248.922 240.996 248.312 240.625C247.706 240.25 247.238 239.727 246.908 239.057C246.583 238.383 246.42 237.598 246.42 236.705C246.42 235.811 246.583 235.023 246.908 234.341C247.238 233.655 247.696 233.121 248.283 232.739C248.874 232.352 249.564 232.159 250.352 232.159C250.806 232.159 251.255 232.235 251.698 232.386C252.141 232.538 252.545 232.784 252.908 233.125C253.272 233.462 253.562 233.909 253.778 234.466C253.994 235.023 254.102 235.708 254.102 236.523V237.091H247.374V235.932H252.738C252.738 235.439 252.639 235 252.442 234.614C252.249 234.227 251.973 233.922 251.613 233.699C251.257 233.475 250.836 233.364 250.352 233.364C249.817 233.364 249.355 233.496 248.965 233.761C248.579 234.023 248.281 234.364 248.073 234.784C247.865 235.205 247.761 235.655 247.761 236.136V236.909C247.761 237.568 247.874 238.127 248.102 238.585C248.333 239.04 248.653 239.386 249.062 239.625C249.471 239.86 249.946 239.977 250.488 239.977C250.84 239.977 251.158 239.928 251.442 239.83C251.73 239.727 251.978 239.576 252.187 239.375C252.395 239.17 252.556 238.917 252.67 238.614L253.965 238.977C253.829 239.417 253.6 239.803 253.278 240.136C252.956 240.466 252.558 240.723 252.085 240.909C251.611 241.091 251.079 241.182 250.488 241.182ZM262.323 234.227L261.119 234.568C261.043 234.367 260.931 234.172 260.783 233.983C260.639 233.79 260.442 233.631 260.192 233.506C259.942 233.381 259.622 233.318 259.232 233.318C258.698 233.318 258.253 233.441 257.897 233.688C257.545 233.93 257.369 234.239 257.369 234.614C257.369 234.947 257.49 235.21 257.732 235.403C257.975 235.597 258.353 235.758 258.869 235.886L260.164 236.205C260.944 236.394 261.526 236.684 261.908 237.074C262.291 237.46 262.482 237.958 262.482 238.568C262.482 239.068 262.338 239.515 262.05 239.909C261.766 240.303 261.369 240.614 260.857 240.841C260.346 241.068 259.751 241.182 259.073 241.182C258.183 241.182 257.446 240.989 256.863 240.602C256.28 240.216 255.91 239.652 255.755 238.909L257.028 238.591C257.149 239.061 257.378 239.413 257.715 239.648C258.056 239.883 258.501 240 259.05 240C259.675 240 260.172 239.867 260.539 239.602C260.91 239.333 261.096 239.011 261.096 238.636C261.096 238.333 260.99 238.08 260.778 237.875C260.566 237.667 260.24 237.511 259.8 237.409L258.346 237.068C257.547 236.879 256.96 236.585 256.585 236.188C256.213 235.786 256.028 235.284 256.028 234.682C256.028 234.189 256.166 233.754 256.442 233.375C256.723 232.996 257.103 232.699 257.585 232.483C258.069 232.267 258.619 232.159 259.232 232.159C260.096 232.159 260.774 232.348 261.266 232.727C261.763 233.106 262.115 233.606 262.323 234.227ZM268.16 241.182C267.319 241.182 266.594 240.996 265.984 240.625C265.378 240.25 264.91 239.727 264.58 239.057C264.254 238.383 264.092 237.598 264.092 236.705C264.092 235.811 264.254 235.023 264.58 234.341C264.91 233.655 265.368 233.121 265.955 232.739C266.546 232.352 267.236 232.159 268.023 232.159C268.478 232.159 268.927 232.235 269.37 232.386C269.813 232.538 270.217 232.784 270.58 233.125C270.944 233.462 271.234 233.909 271.45 234.466C271.665 235.023 271.773 235.708 271.773 236.523V237.091H265.046V235.932H270.41C270.41 235.439 270.311 235 270.114 234.614C269.921 234.227 269.645 233.922 269.285 233.699C268.929 233.475 268.508 233.364 268.023 233.364C267.489 233.364 267.027 233.496 266.637 233.761C266.251 234.023 265.953 234.364 265.745 234.784C265.537 235.205 265.433 235.655 265.433 236.136V236.909C265.433 237.568 265.546 238.127 265.773 238.585C266.004 239.04 266.325 239.386 266.734 239.625C267.143 239.86 267.618 239.977 268.16 239.977C268.512 239.977 268.83 239.928 269.114 239.83C269.402 239.727 269.65 239.576 269.859 239.375C270.067 239.17 270.228 238.917 270.342 238.614L271.637 238.977C271.501 239.417 271.272 239.803 270.95 240.136C270.628 240.466 270.23 240.723 269.756 240.909C269.283 241.091 268.751 241.182 268.16 241.182ZM273.813 232.273H275.154V241.636C275.154 242.174 275.061 242.64 274.876 243.034C274.694 243.428 274.417 243.733 274.046 243.949C273.679 244.165 273.215 244.273 272.654 244.273C272.609 244.273 272.563 244.273 272.518 244.273C272.472 244.273 272.427 244.273 272.381 244.273V243.023C272.427 243.023 272.469 243.023 272.506 243.023C272.544 243.023 272.586 243.023 272.631 243.023C273.04 243.023 273.34 242.902 273.529 242.659C273.719 242.42 273.813 242.08 273.813 241.636V232.273ZM274.472 230.818C274.211 230.818 273.986 230.729 273.796 230.551C273.611 230.373 273.518 230.159 273.518 229.909C273.518 229.659 273.611 229.445 273.796 229.267C273.986 229.089 274.211 229 274.472 229C274.734 229 274.957 229.089 275.143 229.267C275.332 229.445 275.427 229.659 275.427 229.909C275.427 230.159 275.332 230.373 275.143 230.551C274.957 230.729 274.734 230.818 274.472 230.818ZM280.178 241.205C279.625 241.205 279.123 241.1 278.673 240.892C278.222 240.68 277.864 240.375 277.599 239.977C277.334 239.576 277.201 239.091 277.201 238.523C277.201 238.023 277.299 237.617 277.496 237.307C277.693 236.992 277.957 236.746 278.286 236.568C278.616 236.39 278.979 236.258 279.377 236.17C279.779 236.08 280.182 236.008 280.587 235.955C281.118 235.886 281.548 235.835 281.877 235.801C282.21 235.763 282.453 235.701 282.604 235.614C282.76 235.527 282.837 235.375 282.837 235.159V235.114C282.837 234.553 282.684 234.117 282.377 233.807C282.074 233.496 281.614 233.341 280.996 233.341C280.356 233.341 279.854 233.481 279.491 233.761C279.127 234.042 278.871 234.341 278.724 234.659L277.451 234.205C277.678 233.674 277.981 233.261 278.36 232.966C278.743 232.667 279.159 232.458 279.61 232.341C280.065 232.22 280.512 232.159 280.951 232.159C281.231 232.159 281.553 232.193 281.917 232.261C282.284 232.326 282.638 232.46 282.979 232.665C283.324 232.869 283.61 233.178 283.837 233.591C284.065 234.004 284.178 234.557 284.178 235.25V241H282.837V239.818H282.769C282.678 240.008 282.527 240.21 282.315 240.426C282.103 240.642 281.82 240.826 281.468 240.977C281.116 241.129 280.686 241.205 280.178 241.205ZM280.383 240C280.913 240 281.36 239.896 281.724 239.688C282.091 239.479 282.368 239.21 282.553 238.881C282.743 238.551 282.837 238.205 282.837 237.841V236.614C282.781 236.682 282.656 236.744 282.462 236.801C282.273 236.854 282.053 236.902 281.803 236.943C281.557 236.981 281.317 237.015 281.082 237.045C280.851 237.072 280.663 237.095 280.519 237.114C280.171 237.159 279.845 237.233 279.542 237.335C279.243 237.434 279 237.583 278.815 237.784C278.633 237.981 278.542 238.25 278.542 238.591C278.542 239.057 278.714 239.409 279.059 239.648C279.407 239.883 279.849 240 280.383 240ZM294.785 241.182C293.944 241.182 293.219 240.996 292.609 240.625C292.003 240.25 291.535 239.727 291.205 239.057C290.879 238.383 290.717 237.598 290.717 236.705C290.717 235.811 290.879 235.023 291.205 234.341C291.535 233.655 291.993 233.121 292.58 232.739C293.171 232.352 293.861 232.159 294.648 232.159C295.103 232.159 295.552 232.235 295.995 232.386C296.438 232.538 296.842 232.784 297.205 233.125C297.569 233.462 297.859 233.909 298.075 234.466C298.29 235.023 298.398 235.708 298.398 236.523V237.091H291.671V235.932H297.035C297.035 235.439 296.936 235 296.739 234.614C296.546 234.227 296.27 233.922 295.91 233.699C295.554 233.475 295.133 233.364 294.648 233.364C294.114 233.364 293.652 233.496 293.262 233.761C292.876 234.023 292.578 234.364 292.37 234.784C292.162 235.205 292.058 235.655 292.058 236.136V236.909C292.058 237.568 292.171 238.127 292.398 238.585C292.629 239.04 292.95 239.386 293.359 239.625C293.768 239.86 294.243 239.977 294.785 239.977C295.137 239.977 295.455 239.928 295.739 239.83C296.027 239.727 296.275 239.576 296.484 239.375C296.692 239.17 296.853 238.917 296.967 238.614L298.262 238.977C298.126 239.417 297.897 239.803 297.575 240.136C297.253 240.466 296.855 240.723 296.381 240.909C295.908 241.091 295.376 241.182 294.785 241.182ZM301.204 232.273L303.295 235.841L305.386 232.273H306.931L304.113 236.636L306.931 241H305.386L303.295 237.614L301.204 241H299.658L302.431 236.636L299.658 232.273H301.204ZM312.031 241.182C311.212 241.182 310.508 240.989 309.917 240.602C309.326 240.216 308.871 239.684 308.553 239.006C308.235 238.328 308.076 237.553 308.076 236.682C308.076 235.795 308.239 235.013 308.565 234.335C308.894 233.653 309.353 233.121 309.94 232.739C310.531 232.352 311.22 232.159 312.008 232.159C312.621 232.159 313.174 232.273 313.667 232.5C314.159 232.727 314.563 233.045 314.877 233.455C315.192 233.864 315.387 234.341 315.462 234.886H314.121C314.019 234.489 313.792 234.136 313.44 233.83C313.091 233.519 312.621 233.364 312.031 233.364C311.508 233.364 311.049 233.5 310.656 233.773C310.265 234.042 309.96 234.422 309.741 234.915C309.525 235.403 309.417 235.977 309.417 236.636C309.417 237.311 309.523 237.898 309.735 238.398C309.951 238.898 310.254 239.286 310.644 239.562C311.038 239.839 311.5 239.977 312.031 239.977C312.379 239.977 312.695 239.917 312.979 239.795C313.263 239.674 313.504 239.5 313.701 239.273C313.898 239.045 314.038 238.773 314.121 238.455H315.462C315.387 238.97 315.199 239.434 314.9 239.847C314.604 240.256 314.212 240.581 313.724 240.824C313.239 241.062 312.674 241.182 312.031 241.182ZM318.763 229.364V241H317.423V229.364H318.763ZM326.719 237.432V232.273H328.06V241H326.719V239.523H326.629C326.424 239.966 326.106 240.343 325.674 240.653C325.242 240.96 324.697 241.114 324.038 241.114C323.492 241.114 323.007 240.994 322.583 240.756C322.159 240.513 321.826 240.15 321.583 239.665C321.341 239.176 321.219 238.561 321.219 237.818V232.273H322.56V237.727C322.56 238.364 322.738 238.871 323.094 239.25C323.454 239.629 323.913 239.818 324.469 239.818C324.803 239.818 325.142 239.733 325.487 239.562C325.835 239.392 326.127 239.131 326.362 238.778C326.6 238.426 326.719 237.977 326.719 237.432ZM330.516 241V232.273H331.857V241H330.516ZM331.198 230.818C330.937 230.818 330.711 230.729 330.522 230.551C330.336 230.373 330.244 230.159 330.244 229.909C330.244 229.659 330.336 229.445 330.522 229.267C330.711 229.089 330.937 229 331.198 229C331.46 229 331.683 229.089 331.869 229.267C332.058 229.445 332.153 229.659 332.153 229.909C332.153 230.159 332.058 230.373 331.869 230.551C331.683 230.729 331.46 230.818 331.198 230.818ZM334.313 241V232.273H335.609V233.591H335.7C335.859 233.159 336.147 232.809 336.563 232.54C336.98 232.271 337.45 232.136 337.972 232.136C338.071 232.136 338.194 232.138 338.342 232.142C338.489 232.146 338.601 232.152 338.677 232.159V233.523C338.631 233.511 338.527 233.494 338.364 233.472C338.205 233.445 338.037 233.432 337.859 233.432C337.434 233.432 337.056 233.521 336.722 233.699C336.393 233.873 336.131 234.116 335.938 234.426C335.749 234.733 335.654 235.083 335.654 235.477V241H334.313ZM348.425 241.182C347.585 241.182 346.859 240.996 346.249 240.625C345.643 240.25 345.175 239.727 344.846 239.057C344.52 238.383 344.357 237.598 344.357 236.705C344.357 235.811 344.52 235.023 344.846 234.341C345.175 233.655 345.634 233.121 346.221 232.739C346.812 232.352 347.501 232.159 348.289 232.159C348.744 232.159 349.192 232.235 349.636 232.386C350.079 232.538 350.482 232.784 350.846 233.125C351.21 233.462 351.499 233.909 351.715 234.466C351.931 235.023 352.039 235.708 352.039 236.523V237.091H345.312V235.932H350.675C350.675 235.439 350.577 235 350.38 234.614C350.187 234.227 349.91 233.922 349.55 233.699C349.194 233.475 348.774 233.364 348.289 233.364C347.755 233.364 347.293 233.496 346.903 233.761C346.516 234.023 346.219 234.364 346.011 234.784C345.802 235.205 345.698 235.655 345.698 236.136V236.909C345.698 237.568 345.812 238.127 346.039 238.585C346.27 239.04 346.59 239.386 346.999 239.625C347.408 239.86 347.884 239.977 348.425 239.977C348.778 239.977 349.096 239.928 349.38 239.83C349.668 239.727 349.916 239.576 350.124 239.375C350.333 239.17 350.494 238.917 350.607 238.614L351.903 238.977C351.766 239.417 351.537 239.803 351.215 240.136C350.893 240.466 350.496 240.723 350.022 240.909C349.549 241.091 349.016 241.182 348.425 241.182ZM360.261 234.227L359.056 234.568C358.98 234.367 358.869 234.172 358.721 233.983C358.577 233.79 358.38 233.631 358.13 233.506C357.88 233.381 357.56 233.318 357.17 233.318C356.636 233.318 356.191 233.441 355.835 233.688C355.482 233.93 355.306 234.239 355.306 234.614C355.306 234.947 355.427 235.21 355.67 235.403C355.912 235.597 356.291 235.758 356.806 235.886L358.102 236.205C358.882 236.394 359.463 236.684 359.846 237.074C360.228 237.46 360.42 237.958 360.42 238.568C360.42 239.068 360.276 239.515 359.988 239.909C359.704 240.303 359.306 240.614 358.795 240.841C358.283 241.068 357.689 241.182 357.011 241.182C356.121 241.182 355.384 240.989 354.8 240.602C354.217 240.216 353.848 239.652 353.692 238.909L354.965 238.591C355.086 239.061 355.316 239.413 355.653 239.648C355.994 239.883 356.439 240 356.988 240C357.613 240 358.109 239.867 358.477 239.602C358.848 239.333 359.033 239.011 359.033 238.636C359.033 238.333 358.927 238.08 358.715 237.875C358.503 237.667 358.177 237.511 357.738 237.409L356.283 237.068C355.484 236.879 354.897 236.585 354.522 236.188C354.151 235.786 353.965 235.284 353.965 234.682C353.965 234.189 354.103 233.754 354.38 233.375C354.66 232.996 355.041 232.699 355.522 232.483C356.007 232.267 356.556 232.159 357.17 232.159C358.033 232.159 358.711 232.348 359.204 232.727C359.7 233.106 360.052 233.606 360.261 234.227ZM368.62 234.227L367.415 234.568C367.34 234.367 367.228 234.172 367.08 233.983C366.936 233.79 366.739 233.631 366.489 233.506C366.239 233.381 365.919 233.318 365.529 233.318C364.995 233.318 364.55 233.441 364.194 233.688C363.842 233.93 363.665 234.239 363.665 234.614C363.665 234.947 363.787 235.21 364.029 235.403C364.272 235.597 364.65 235.758 365.165 235.886L366.461 236.205C367.241 236.394 367.823 236.684 368.205 237.074C368.588 237.46 368.779 237.958 368.779 238.568C368.779 239.068 368.635 239.515 368.347 239.909C368.063 240.303 367.665 240.614 367.154 240.841C366.643 241.068 366.048 241.182 365.37 241.182C364.48 241.182 363.743 240.989 363.16 240.602C362.576 240.216 362.207 239.652 362.052 238.909L363.325 238.591C363.446 239.061 363.675 239.413 364.012 239.648C364.353 239.883 364.798 240 365.347 240C365.972 240 366.469 239.867 366.836 239.602C367.207 239.333 367.393 239.011 367.393 238.636C367.393 238.333 367.287 238.08 367.075 237.875C366.862 237.667 366.537 237.511 366.097 237.409L364.643 237.068C363.844 236.879 363.256 236.585 362.881 236.188C362.51 235.786 362.325 235.284 362.325 234.682C362.325 234.189 362.463 233.754 362.739 233.375C363.02 232.996 363.4 232.699 363.881 232.483C364.366 232.267 364.915 232.159 365.529 232.159C366.393 232.159 367.071 232.348 367.563 232.727C368.059 233.106 368.412 233.606 368.62 234.227ZM374.457 241.182C373.616 241.182 372.89 240.996 372.281 240.625C371.674 240.25 371.207 239.727 370.877 239.057C370.551 238.383 370.388 237.598 370.388 236.705C370.388 235.811 370.551 235.023 370.877 234.341C371.207 233.655 371.665 233.121 372.252 232.739C372.843 232.352 373.532 232.159 374.32 232.159C374.775 232.159 375.224 232.235 375.667 232.386C376.11 232.538 376.513 232.784 376.877 233.125C377.241 233.462 377.531 233.909 377.746 234.466C377.962 235.023 378.07 235.708 378.07 236.523V237.091H371.343V235.932H376.707C376.707 235.439 376.608 235 376.411 234.614C376.218 234.227 375.942 233.922 375.582 233.699C375.226 233.475 374.805 233.364 374.32 233.364C373.786 233.364 373.324 233.496 372.934 233.761C372.548 234.023 372.25 234.364 372.042 234.784C371.834 235.205 371.729 235.655 371.729 236.136V236.909C371.729 237.568 371.843 238.127 372.07 238.585C372.301 239.04 372.621 239.386 373.031 239.625C373.44 239.86 373.915 239.977 374.457 239.977C374.809 239.977 375.127 239.928 375.411 239.83C375.699 239.727 375.947 239.576 376.156 239.375C376.364 239.17 376.525 238.917 376.638 238.614L377.934 238.977C377.798 239.417 377.568 239.803 377.246 240.136C376.924 240.466 376.527 240.723 376.053 240.909C375.58 241.091 375.048 241.182 374.457 241.182ZM388.496 232.273V233.409H383.792V232.273H388.496ZM385.201 241V231.068C385.201 230.568 385.318 230.152 385.553 229.818C385.788 229.485 386.093 229.235 386.468 229.068C386.843 228.902 387.239 228.818 387.656 228.818C387.985 228.818 388.254 228.845 388.462 228.898C388.671 228.951 388.826 229 388.928 229.045L388.542 230.205C388.474 230.182 388.379 230.153 388.258 230.119C388.14 230.085 387.985 230.068 387.792 230.068C387.349 230.068 387.029 230.18 386.832 230.403C386.638 230.627 386.542 230.955 386.542 231.386V241H385.201ZM395.876 237.432V232.273H397.217V241H395.876V239.523H395.785C395.58 239.966 395.262 240.343 394.83 240.653C394.398 240.96 393.853 241.114 393.194 241.114C392.648 241.114 392.164 240.994 391.739 240.756C391.315 240.513 390.982 240.15 390.739 239.665C390.497 239.176 390.376 238.561 390.376 237.818V232.273H391.717V237.727C391.717 238.364 391.895 238.871 392.251 239.25C392.611 239.629 393.069 239.818 393.626 239.818C393.959 239.818 394.298 239.733 394.643 239.562C394.991 239.392 395.283 239.131 395.518 238.778C395.756 238.426 395.876 237.977 395.876 237.432ZM401.013 235.75V241H399.673V232.273H400.968V233.636H401.082C401.286 233.193 401.597 232.837 402.013 232.568C402.43 232.295 402.968 232.159 403.627 232.159C404.218 232.159 404.735 232.28 405.178 232.523C405.621 232.761 405.966 233.125 406.212 233.614C406.459 234.098 406.582 234.712 406.582 235.455V241H405.241V235.545C405.241 234.86 405.063 234.326 404.707 233.943C404.351 233.557 403.862 233.364 403.241 233.364C402.813 233.364 402.43 233.456 402.093 233.642C401.76 233.828 401.496 234.098 401.303 234.455C401.11 234.811 401.013 235.242 401.013 235.75ZM412.577 241.182C411.759 241.182 411.055 240.989 410.464 240.602C409.873 240.216 409.418 239.684 409.1 239.006C408.782 238.328 408.623 237.553 408.623 236.682C408.623 235.795 408.786 235.013 409.112 234.335C409.441 233.653 409.899 233.121 410.487 232.739C411.077 232.352 411.767 232.159 412.555 232.159C413.168 232.159 413.721 232.273 414.214 232.5C414.706 232.727 415.11 233.045 415.424 233.455C415.738 233.864 415.933 234.341 416.009 234.886H414.668C414.566 234.489 414.339 234.136 413.987 233.83C413.638 233.519 413.168 233.364 412.577 233.364C412.055 233.364 411.596 233.5 411.202 233.773C410.812 234.042 410.507 234.422 410.288 234.915C410.072 235.403 409.964 235.977 409.964 236.636C409.964 237.311 410.07 237.898 410.282 238.398C410.498 238.898 410.801 239.286 411.191 239.562C411.585 239.839 412.047 239.977 412.577 239.977C412.926 239.977 413.242 239.917 413.526 239.795C413.81 239.674 414.051 239.5 414.248 239.273C414.445 239.045 414.585 238.773 414.668 238.455H416.009C415.933 238.97 415.746 239.434 415.447 239.847C415.151 240.256 414.759 240.581 414.271 240.824C413.786 241.062 413.221 241.182 412.577 241.182ZM417.969 241V232.273H419.31V241H417.969ZM418.651 230.818C418.39 230.818 418.165 230.729 417.975 230.551C417.79 230.373 417.697 230.159 417.697 229.909C417.697 229.659 417.79 229.445 417.975 229.267C418.165 229.089 418.39 229 418.651 229C418.913 229 419.136 229.089 419.322 229.267C419.511 229.445 419.606 229.659 419.606 229.909C419.606 230.159 419.511 230.373 419.322 230.551C419.136 230.729 418.913 230.818 418.651 230.818ZM425.312 241.182C424.524 241.182 423.833 240.994 423.238 240.619C422.647 240.244 422.185 239.72 421.852 239.045C421.522 238.371 421.357 237.583 421.357 236.682C421.357 235.773 421.522 234.979 421.852 234.301C422.185 233.623 422.647 233.097 423.238 232.722C423.833 232.347 424.524 232.159 425.312 232.159C426.1 232.159 426.789 232.347 427.38 232.722C427.975 233.097 428.437 233.623 428.766 234.301C429.1 234.979 429.266 235.773 429.266 236.682C429.266 237.583 429.1 238.371 428.766 239.045C428.437 239.72 427.975 240.244 427.38 240.619C426.789 240.994 426.1 241.182 425.312 241.182ZM425.312 239.977C425.91 239.977 426.403 239.824 426.789 239.517C427.175 239.21 427.461 238.807 427.647 238.307C427.833 237.807 427.925 237.265 427.925 236.682C427.925 236.098 427.833 235.555 427.647 235.051C427.461 234.547 427.175 234.14 426.789 233.83C426.403 233.519 425.91 233.364 425.312 233.364C424.713 233.364 424.221 233.519 423.835 233.83C423.448 234.14 423.162 234.547 422.977 235.051C422.791 235.555 422.698 236.098 422.698 236.682C422.698 237.265 422.791 237.807 422.977 238.307C423.162 238.807 423.448 239.21 423.835 239.517C424.221 239.824 424.713 239.977 425.312 239.977ZM432.654 235.75V241H431.313V232.273H432.609V233.636H432.722C432.927 233.193 433.237 232.837 433.654 232.568C434.071 232.295 434.609 232.159 435.268 232.159C435.859 232.159 436.376 232.28 436.819 232.523C437.262 232.761 437.607 233.125 437.853 233.614C438.099 234.098 438.222 234.712 438.222 235.455V241H436.881V235.545C436.881 234.86 436.703 234.326 436.347 233.943C435.991 233.557 435.503 233.364 434.881 233.364C434.453 233.364 434.071 233.456 433.734 233.642C433.4 233.828 433.137 234.098 432.944 234.455C432.751 234.811 432.654 235.242 432.654 235.75ZM443.241 241.205C442.688 241.205 442.186 241.1 441.735 240.892C441.284 240.68 440.926 240.375 440.661 239.977C440.396 239.576 440.263 239.091 440.263 238.523C440.263 238.023 440.362 237.617 440.559 237.307C440.756 236.992 441.019 236.746 441.349 236.568C441.678 236.39 442.042 236.258 442.44 236.17C442.841 236.08 443.245 236.008 443.65 235.955C444.18 235.886 444.61 235.835 444.94 235.801C445.273 235.763 445.515 235.701 445.667 235.614C445.822 235.527 445.9 235.375 445.9 235.159V235.114C445.9 234.553 445.746 234.117 445.44 233.807C445.137 233.496 444.676 233.341 444.059 233.341C443.419 233.341 442.917 233.481 442.553 233.761C442.19 234.042 441.934 234.341 441.786 234.659L440.513 234.205C440.741 233.674 441.044 233.261 441.423 232.966C441.805 232.667 442.222 232.458 442.673 232.341C443.127 232.22 443.574 232.159 444.013 232.159C444.294 232.159 444.616 232.193 444.979 232.261C445.347 232.326 445.701 232.46 446.042 232.665C446.387 232.869 446.673 233.178 446.9 233.591C447.127 234.004 447.241 234.557 447.241 235.25V241H445.9V239.818H445.832C445.741 240.008 445.589 240.21 445.377 240.426C445.165 240.642 444.883 240.826 444.531 240.977C444.178 241.129 443.748 241.205 443.241 241.205ZM443.445 240C443.976 240 444.423 239.896 444.786 239.688C445.154 239.479 445.43 239.21 445.616 238.881C445.805 238.551 445.9 238.205 445.9 237.841V236.614C445.843 236.682 445.718 236.744 445.525 236.801C445.335 236.854 445.116 236.902 444.866 236.943C444.62 236.981 444.379 237.015 444.144 237.045C443.913 237.072 443.726 237.095 443.582 237.114C443.233 237.159 442.907 237.233 442.604 237.335C442.305 237.434 442.063 237.583 441.877 237.784C441.695 237.981 441.604 238.25 441.604 238.591C441.604 239.057 441.777 239.409 442.121 239.648C442.47 239.883 442.911 240 443.445 240ZM443.491 231.091L444.877 228.455H446.445L444.673 231.091H443.491ZM449.688 241V232.273H450.984V233.591H451.075C451.234 233.159 451.522 232.809 451.938 232.54C452.355 232.271 452.825 232.136 453.347 232.136C453.446 232.136 453.569 232.138 453.717 232.142C453.864 232.146 453.976 232.152 454.052 232.159V233.523C454.006 233.511 453.902 233.494 453.739 233.472C453.58 233.445 453.412 233.432 453.234 233.432C452.809 233.432 452.431 233.521 452.097 233.699C451.768 233.873 451.506 234.116 451.313 234.426C451.124 234.733 451.029 235.083 451.029 235.477V241H449.688ZM455.641 241V232.273H456.982V241H455.641ZM456.323 230.818C456.062 230.818 455.836 230.729 455.647 230.551C455.461 230.373 455.369 230.159 455.369 229.909C455.369 229.659 455.461 229.445 455.647 229.267C455.836 229.089 456.062 229 456.323 229C456.585 229 456.808 229.089 456.994 229.267C457.183 229.445 457.278 229.659 457.278 229.909C457.278 230.159 457.183 230.373 456.994 230.551C456.808 230.729 456.585 230.818 456.323 230.818ZM462.984 241.182C462.196 241.182 461.504 240.994 460.91 240.619C460.319 240.244 459.857 239.72 459.523 239.045C459.194 238.371 459.029 237.583 459.029 236.682C459.029 235.773 459.194 234.979 459.523 234.301C459.857 233.623 460.319 233.097 460.91 232.722C461.504 232.347 462.196 232.159 462.984 232.159C463.772 232.159 464.461 232.347 465.052 232.722C465.647 233.097 466.109 233.623 466.438 234.301C466.772 234.979 466.938 235.773 466.938 236.682C466.938 237.583 466.772 238.371 466.438 239.045C466.109 239.72 465.647 240.244 465.052 240.619C464.461 240.994 463.772 241.182 462.984 241.182ZM462.984 239.977C463.582 239.977 464.075 239.824 464.461 239.517C464.847 239.21 465.133 238.807 465.319 238.307C465.504 237.807 465.597 237.265 465.597 236.682C465.597 236.098 465.504 235.555 465.319 235.051C465.133 234.547 464.847 234.14 464.461 233.83C464.075 233.519 463.582 233.364 462.984 233.364C462.385 233.364 461.893 233.519 461.506 233.83C461.12 234.14 460.834 234.547 460.648 235.051C460.463 235.555 460.37 236.098 460.37 236.682C460.37 237.265 460.463 237.807 460.648 238.307C460.834 238.807 461.12 239.21 461.506 239.517C461.893 239.824 462.385 239.977 462.984 239.977ZM470.735 237.727V237.659C470.743 236.936 470.818 236.36 470.962 235.932C471.106 235.504 471.311 235.157 471.576 234.892C471.841 234.627 472.159 234.383 472.531 234.159C472.754 234.023 472.955 233.862 473.133 233.676C473.311 233.487 473.451 233.269 473.553 233.023C473.659 232.777 473.712 232.504 473.712 232.205C473.712 231.833 473.625 231.511 473.451 231.239C473.277 230.966 473.044 230.756 472.752 230.608C472.46 230.46 472.137 230.386 471.781 230.386C471.47 230.386 471.171 230.451 470.883 230.58C470.595 230.708 470.354 230.911 470.161 231.188C469.968 231.464 469.856 231.826 469.826 232.273H468.394C468.424 231.629 468.591 231.078 468.894 230.619C469.201 230.161 469.604 229.811 470.104 229.568C470.608 229.326 471.167 229.205 471.781 229.205C472.447 229.205 473.027 229.337 473.519 229.602C474.015 229.867 474.398 230.231 474.667 230.693C474.94 231.155 475.076 231.682 475.076 232.273C475.076 232.689 475.012 233.066 474.883 233.403C474.758 233.741 474.576 234.042 474.337 234.307C474.103 234.572 473.818 234.807 473.485 235.011C473.152 235.22 472.885 235.439 472.684 235.67C472.483 235.898 472.337 236.169 472.246 236.483C472.156 236.797 472.106 237.189 472.099 237.659V237.727H470.735ZM471.462 241.091C471.182 241.091 470.942 240.991 470.741 240.79C470.54 240.589 470.44 240.348 470.44 240.068C470.44 239.788 470.54 239.547 470.741 239.347C470.942 239.146 471.182 239.045 471.462 239.045C471.743 239.045 471.983 239.146 472.184 239.347C472.385 239.547 472.485 239.788 472.485 240.068C472.485 240.254 472.438 240.424 472.343 240.58C472.252 240.735 472.129 240.86 471.974 240.955C471.822 241.045 471.652 241.091 471.462 241.091Z" fill="#697987"/>
<rect x="175" y="269" width="107" height="47" rx="4" fill="#064EB9"/>
<path d="M223.967 286.364V298H222.354L216.439 289.466H216.331V298H214.575V286.364H216.2L222.121 294.909H222.229V286.364H223.967ZM228.932 298.193C228.379 298.193 227.879 298.091 227.432 297.886C226.985 297.678 226.631 297.377 226.369 296.983C226.112 296.589 225.983 296.106 225.983 295.534C225.983 295.042 226.078 294.636 226.267 294.318C226.456 294 226.712 293.748 227.034 293.562C227.356 293.377 227.716 293.237 228.114 293.142C228.511 293.047 228.917 292.975 229.33 292.926C229.852 292.866 230.277 292.816 230.602 292.778C230.928 292.737 231.165 292.67 231.312 292.58C231.46 292.489 231.534 292.341 231.534 292.136V292.097C231.534 291.6 231.394 291.216 231.114 290.943C230.837 290.67 230.424 290.534 229.875 290.534C229.303 290.534 228.852 290.661 228.523 290.915C228.197 291.165 227.972 291.443 227.847 291.75L226.25 291.386C226.439 290.856 226.716 290.428 227.08 290.102C227.447 289.773 227.869 289.534 228.347 289.386C228.824 289.235 229.326 289.159 229.852 289.159C230.201 289.159 230.57 289.201 230.96 289.284C231.354 289.364 231.722 289.511 232.062 289.727C232.407 289.943 232.689 290.252 232.909 290.653C233.129 291.051 233.239 291.568 233.239 292.205V298H231.58V296.807H231.511C231.402 297.027 231.237 297.242 231.017 297.455C230.797 297.667 230.515 297.843 230.17 297.983C229.826 298.123 229.413 298.193 228.932 298.193ZM229.301 296.83C229.771 296.83 230.172 296.737 230.506 296.551C230.843 296.366 231.098 296.123 231.273 295.824C231.451 295.521 231.54 295.197 231.54 294.852V293.727C231.479 293.788 231.362 293.845 231.188 293.898C231.017 293.947 230.822 293.991 230.602 294.028C230.383 294.062 230.169 294.095 229.96 294.125C229.752 294.152 229.578 294.174 229.438 294.193C229.108 294.235 228.807 294.305 228.534 294.403C228.265 294.502 228.049 294.644 227.886 294.83C227.727 295.011 227.648 295.254 227.648 295.557C227.648 295.977 227.803 296.295 228.114 296.511C228.424 296.723 228.82 296.83 229.301 296.83ZM228.233 288.216L227.091 288.182C227.091 287.553 227.259 287.051 227.597 286.676C227.938 286.301 228.358 286.114 228.858 286.114C229.089 286.114 229.292 286.153 229.466 286.233C229.64 286.309 229.803 286.398 229.955 286.5C230.11 286.598 230.263 286.687 230.415 286.767C230.57 286.843 230.742 286.881 230.932 286.881C231.152 286.881 231.33 286.797 231.466 286.631C231.606 286.464 231.676 286.258 231.676 286.011L232.795 286.085C232.795 286.718 232.625 287.216 232.284 287.58C231.943 287.939 231.525 288.121 231.028 288.125C230.759 288.125 230.536 288.087 230.358 288.011C230.184 287.932 230.028 287.843 229.892 287.744C229.756 287.642 229.616 287.551 229.472 287.472C229.328 287.392 229.155 287.352 228.955 287.352C228.742 287.352 228.568 287.436 228.432 287.602C228.299 287.765 228.233 287.97 228.233 288.216ZM239.178 298.176C238.359 298.176 237.645 297.989 237.036 297.614C236.426 297.239 235.952 296.714 235.615 296.04C235.278 295.366 235.109 294.578 235.109 293.676C235.109 292.771 235.278 291.979 235.615 291.301C235.952 290.623 236.426 290.097 237.036 289.722C237.645 289.347 238.359 289.159 239.178 289.159C239.996 289.159 240.71 289.347 241.32 289.722C241.929 290.097 242.403 290.623 242.74 291.301C243.077 291.979 243.246 292.771 243.246 293.676C243.246 294.578 243.077 295.366 242.74 296.04C242.403 296.714 241.929 297.239 241.32 297.614C240.71 297.989 239.996 298.176 239.178 298.176ZM239.183 296.75C239.714 296.75 240.153 296.61 240.501 296.33C240.85 296.049 241.107 295.676 241.274 295.21C241.445 294.744 241.53 294.231 241.53 293.67C241.53 293.114 241.445 292.602 241.274 292.136C241.107 291.667 240.85 291.29 240.501 291.006C240.153 290.722 239.714 290.58 239.183 290.58C238.649 290.58 238.206 290.722 237.854 291.006C237.505 291.29 237.246 291.667 237.075 292.136C236.909 292.602 236.825 293.114 236.825 293.67C236.825 294.231 236.909 294.744 237.075 295.21C237.246 295.676 237.505 296.049 237.854 296.33C238.206 296.61 238.649 296.75 239.183 296.75Z" fill="white"/>
<path d="M345.203 289.42C345.143 288.883 344.893 288.466 344.453 288.17C344.014 287.871 343.461 287.722 342.794 287.722C342.317 287.722 341.904 287.797 341.555 287.949C341.207 288.097 340.936 288.301 340.743 288.562C340.554 288.82 340.459 289.114 340.459 289.443C340.459 289.72 340.523 289.958 340.652 290.159C340.785 290.36 340.957 290.528 341.169 290.665C341.385 290.797 341.616 290.909 341.862 291C342.108 291.087 342.345 291.159 342.572 291.216L343.709 291.511C344.08 291.602 344.461 291.725 344.851 291.881C345.241 292.036 345.603 292.241 345.936 292.494C346.269 292.748 346.538 293.062 346.743 293.438C346.951 293.812 347.055 294.261 347.055 294.784C347.055 295.443 346.885 296.028 346.544 296.54C346.207 297.051 345.716 297.455 345.072 297.75C344.432 298.045 343.658 298.193 342.749 298.193C341.877 298.193 341.124 298.055 340.487 297.778C339.851 297.502 339.353 297.11 338.993 296.602C338.633 296.091 338.434 295.485 338.396 294.784H340.158C340.192 295.205 340.328 295.555 340.567 295.835C340.809 296.112 341.118 296.318 341.493 296.455C341.872 296.587 342.286 296.653 342.737 296.653C343.233 296.653 343.675 296.576 344.061 296.42C344.451 296.261 344.758 296.042 344.982 295.761C345.205 295.477 345.317 295.146 345.317 294.767C345.317 294.422 345.218 294.14 345.021 293.92C344.828 293.701 344.565 293.519 344.232 293.375C343.902 293.231 343.529 293.104 343.112 292.994L341.737 292.619C340.805 292.366 340.067 291.992 339.521 291.5C338.98 291.008 338.709 290.356 338.709 289.545C338.709 288.875 338.891 288.29 339.254 287.79C339.618 287.29 340.11 286.902 340.732 286.625C341.353 286.345 342.054 286.205 342.834 286.205C343.622 286.205 344.317 286.343 344.919 286.619C345.525 286.896 346.002 287.277 346.351 287.761C346.699 288.242 346.881 288.795 346.896 289.42H345.203ZM349.017 298V289.273H350.716V298H349.017ZM349.875 287.926C349.58 287.926 349.326 287.828 349.114 287.631C348.905 287.43 348.801 287.191 348.801 286.915C348.801 286.634 348.905 286.396 349.114 286.199C349.326 285.998 349.58 285.898 349.875 285.898C350.17 285.898 350.422 285.998 350.631 286.199C350.843 286.396 350.949 286.634 350.949 286.915C350.949 287.191 350.843 287.43 350.631 287.631C350.422 287.828 350.17 287.926 349.875 287.926ZM353.001 298V289.273H354.632V290.693H354.74C354.922 290.212 355.219 289.837 355.632 289.568C356.045 289.295 356.539 289.159 357.115 289.159C357.698 289.159 358.187 289.295 358.581 289.568C358.979 289.841 359.272 290.216 359.462 290.693H359.553C359.761 290.227 360.092 289.856 360.547 289.58C361.001 289.299 361.543 289.159 362.172 289.159C362.964 289.159 363.609 289.407 364.109 289.903C364.613 290.4 364.865 291.148 364.865 292.148V298H363.166V292.307C363.166 291.716 363.005 291.288 362.683 291.023C362.361 290.758 361.977 290.625 361.53 290.625C360.977 290.625 360.547 290.795 360.24 291.136C359.933 291.473 359.78 291.907 359.78 292.438V298H358.087V292.199C358.087 291.725 357.939 291.345 357.643 291.057C357.348 290.769 356.964 290.625 356.49 290.625C356.168 290.625 355.871 290.71 355.598 290.881C355.329 291.047 355.111 291.28 354.945 291.58C354.782 291.879 354.7 292.225 354.7 292.619V298H353.001Z" fill="#064EB9"/>
<rect x="298.5" y="269.5" width="106" height="46" rx="3.5" stroke="#064EB9"/>
<rect x="32.5" y="32.5" width="515" height="296" stroke="#E4E4E4"/>
</g>
</g>
<defs>
<filter id="filter0_d_296_714" x="0" y="0" width="580" height="361" filterUnits="userSpaceOnUse" color-interpolation-filters="sRGB">
<feFlood flood-opacity="0" result="BackgroundImageFix"/>
<feColorMatrix in="SourceAlpha" type="matrix" values="0 0 0 0 0 0 0 0 0 0 0 0 0 0 0 0 0 0 127 0" result="hardAlpha"/>
<feOffset/>
<feGaussianBlur stdDeviation="16"/>
<feComposite in2="hardAlpha" operator="out"/>
<feColorMatrix type="matrix" values="0 0 0 0 0 0 0 0 0 0 0 0 0 0 0 0 0 0 0.1 0"/>
<feBlend mode="normal" in2="BackgroundImageFix" result="effect1_dropShadow_296_714"/>
<feBlend mode="normal" in="SourceGraphic" in2="effect1_dropShadow_296_714" result="shape"/>
</filter>
<clipPath id="clip0_296_714">
<rect x="32" y="32" width="516" height="297" rx="8" fill="white"/>
</clipPath>
</defs>
</svg>
