<svg width="105" height="108" viewBox="0 0 105 108" fill="none" xmlns="http://www.w3.org/2000/svg">
<path d="M29.3395 72.4531C29.2732 71.8329 28.9938 71.3499 28.5014 71.0043C28.0137 70.6586 27.3793 70.4858 26.598 70.4858C26.0488 70.4858 25.5777 70.5687 25.1847 70.7344C24.7917 70.9001 24.491 71.125 24.2827 71.4091C24.0743 71.6932 23.9678 72.0175 23.9631 72.3821C23.9631 72.6851 24.0317 72.9479 24.169 73.1705C24.3111 73.393 24.5028 73.5824 24.7443 73.7386C24.9858 73.8902 25.2533 74.018 25.5469 74.1222C25.8404 74.2263 26.1364 74.3139 26.4347 74.3849L27.7983 74.7259C28.3475 74.8537 28.8755 75.0265 29.3821 75.2443C29.8935 75.4621 30.3504 75.7367 30.7528 76.0682C31.16 76.3996 31.482 76.7997 31.7188 77.2685C31.9555 77.7372 32.0739 78.2865 32.0739 78.9162C32.0739 79.7685 31.8561 80.5189 31.4205 81.1676C30.9848 81.8116 30.3551 82.3158 29.5312 82.6804C28.7121 83.0402 27.7202 83.2202 26.5554 83.2202C25.4238 83.2202 24.4413 83.045 23.608 82.6946C22.7794 82.3442 22.1307 81.8329 21.6619 81.1605C21.1979 80.4882 20.947 79.669 20.9091 78.7031H23.5014C23.5393 79.2098 23.6955 79.6312 23.9702 79.9673C24.2448 80.3035 24.6023 80.5545 25.0426 80.7202C25.4877 80.8859 25.9848 80.9688 26.5341 80.9688C27.107 80.9688 27.6089 80.8835 28.0398 80.7131C28.4754 80.5379 28.8163 80.2964 29.0625 79.9886C29.3087 79.6761 29.4342 79.3116 29.4389 78.8949C29.4342 78.5161 29.3229 78.2036 29.1051 77.9574C28.8873 77.7064 28.5819 77.4981 28.1889 77.3324C27.8007 77.1619 27.3461 77.0104 26.8253 76.8778L25.1705 76.4517C23.9725 76.1439 23.0256 75.6776 22.3295 75.0526C21.6383 74.4228 21.2926 73.5871 21.2926 72.5455C21.2926 71.6884 21.5246 70.938 21.9886 70.294C22.4574 69.6501 23.0942 69.1506 23.8991 68.7955C24.7041 68.4356 25.6155 68.2557 26.6335 68.2557C27.6657 68.2557 28.5701 68.4356 29.3466 68.7955C30.1278 69.1506 30.741 69.6454 31.1861 70.2798C31.6312 70.9096 31.8608 71.634 31.875 72.4531H29.3395ZM37.4485 83.2202C36.7572 83.2202 36.1346 83.0971 35.5806 82.8509C35.0314 82.5999 34.5958 82.2306 34.2738 81.7429C33.9566 81.2552 33.7979 80.6539 33.7979 79.9389C33.7979 79.3234 33.9116 78.8144 34.1388 78.4119C34.3661 78.0095 34.6763 77.6875 35.0692 77.446C35.4622 77.2045 35.9049 77.0223 36.3974 76.8991C36.8945 76.7713 37.4083 76.679 37.9386 76.6222C38.5778 76.5559 39.0962 76.4967 39.494 76.4446C39.8917 76.3878 40.1805 76.3026 40.3604 76.1889C40.5451 76.0705 40.6374 75.8883 40.6374 75.642V75.5994C40.6374 75.0644 40.4788 74.6501 40.1616 74.3565C39.8443 74.063 39.3874 73.9162 38.7908 73.9162C38.1611 73.9162 37.6616 74.0535 37.2923 74.3281C36.9277 74.6027 36.6815 74.9271 36.5536 75.3011L34.1531 74.9602C34.3424 74.2973 34.6549 73.7434 35.0906 73.2983C35.5262 72.8485 36.0588 72.5123 36.6886 72.2898C37.3183 72.0625 38.0143 71.9489 38.7766 71.9489C39.3022 71.9489 39.8254 72.0104 40.3462 72.1335C40.8671 72.2566 41.3429 72.4602 41.7738 72.7443C42.2047 73.0237 42.5503 73.4048 42.8107 73.8878C43.0759 74.3707 43.2085 74.9744 43.2085 75.6989V83H40.7369V81.5014H40.6516C40.4954 81.8045 40.2752 82.0885 39.9911 82.3537C39.7118 82.6141 39.359 82.8248 38.9329 82.9858C38.5115 83.142 38.0167 83.2202 37.4485 83.2202ZM38.1161 81.331C38.6322 81.331 39.0797 81.2292 39.4585 81.0256C39.8372 80.8172 40.1284 80.5426 40.332 80.2017C40.5404 79.8608 40.6445 79.4891 40.6445 79.0866V77.8011C40.564 77.8674 40.4267 77.929 40.2326 77.9858C40.0432 78.0426 39.8301 78.0923 39.5934 78.1349C39.3567 78.1776 39.1223 78.2154 38.8903 78.2486C38.6583 78.2817 38.457 78.3101 38.2866 78.3338C37.9031 78.3859 37.5598 78.4711 37.2567 78.5895C36.9537 78.7079 36.7146 78.8736 36.5394 79.0866C36.3642 79.295 36.2766 79.5649 36.2766 79.8963C36.2766 80.3698 36.4495 80.7273 36.7951 80.9688C37.1407 81.2102 37.5811 81.331 38.1161 81.331ZM45.7937 83V72.0909H48.3647V83H45.7937ZM47.0863 70.5426C46.6791 70.5426 46.3287 70.4077 46.0352 70.1378C45.7416 69.8632 45.5948 69.5341 45.5948 69.1506C45.5948 68.7623 45.7416 68.4332 46.0352 68.1634C46.3287 67.8887 46.6791 67.7514 47.0863 67.7514C47.4982 67.7514 47.8486 67.8887 48.1374 68.1634C48.431 68.4332 48.5778 68.7623 48.5778 69.1506C48.5778 69.5341 48.431 69.8632 48.1374 70.1378C47.8486 70.4077 47.4982 70.5426 47.0863 70.5426ZM51.0085 83V72.0909H53.5014V73.9091H53.6151C53.8139 73.2794 54.1548 72.794 54.6378 72.4531C55.1255 72.1075 55.6818 71.9347 56.3068 71.9347C56.4489 71.9347 56.6075 71.9418 56.7827 71.956C56.9626 71.9654 57.1117 71.982 57.2301 72.0057V74.3707C57.1212 74.3329 56.9484 74.2997 56.7116 74.2713C56.4796 74.2382 56.2547 74.2216 56.0369 74.2216C55.5682 74.2216 55.1468 74.3234 54.7727 74.527C54.4034 74.7259 54.1122 75.0028 53.8991 75.358C53.6861 75.7131 53.5795 76.1226 53.5795 76.5866V83H51.0085Z" fill="#FF0000"/>
<path d="M85.4141 76.5974L78.8516 82.5037C78.2656 83.031 77.25 82.6619 77.25 81.906V78.531H71.9375C71.418 78.531 71 78.1548 71 77.6873V74.3123C71 73.8447 71.418 73.4685 71.9375 73.4685H77.25V70.0935C77.25 69.3412 78.2617 68.9685 78.8516 69.4959L85.4141 75.4021C85.7773 75.7326 85.7773 76.267 85.4141 76.5974ZM73.5 82.3279V80.9216C73.5 80.6896 73.2891 80.4998 73.0312 80.4998H69.75C69.0586 80.4998 68.5 79.997 68.5 79.3748V72.6248C68.5 72.0025 69.0586 71.4998 69.75 71.4998H73.0312C73.2891 71.4998 73.5 71.3099 73.5 71.0779V69.6716C73.5 69.4396 73.2891 69.2498 73.0312 69.2498H69.75C67.6797 69.2498 66 70.7615 66 72.6248V79.3748C66 81.2381 67.6797 82.7498 69.75 82.7498H73.0312C73.2891 82.7498 73.5 82.5599 73.5 82.3279Z" fill="#FF0000"/>
<path d="M29.7159 28.0909C29.6307 27.3712 29.285 26.8125 28.679 26.4148C28.0729 26.017 27.3295 25.8182 26.4489 25.8182C25.8049 25.8182 25.2415 25.9223 24.7585 26.1307C24.2803 26.339 23.9063 26.6255 23.6364 26.9901C23.3712 27.3546 23.2386 27.7689 23.2386 28.233C23.2386 28.6212 23.331 28.955 23.5156 29.2344C23.705 29.509 23.9465 29.7386 24.2401 29.9233C24.5336 30.1032 24.8414 30.2524 25.1634 30.3707C25.4853 30.4844 25.7812 30.5767 26.0511 30.6477L27.5284 31.0455C27.9072 31.1449 28.3286 31.2822 28.7926 31.4574C29.2614 31.6326 29.7088 31.8717 30.1349 32.1747C30.5658 32.473 30.9209 32.8565 31.2003 33.3253C31.4796 33.794 31.6193 34.3693 31.6193 35.0511C31.6193 35.8371 31.4134 36.5473 31.0014 37.1818C30.5942 37.8163 29.9976 38.3205 29.2116 38.6946C28.4304 39.0687 27.4811 39.2557 26.3636 39.2557C25.322 39.2557 24.42 39.0876 23.6577 38.7514C22.9001 38.4152 22.3035 37.9465 21.8679 37.3452C21.437 36.7438 21.1932 36.0455 21.1364 35.25H22.9545C23.0019 35.7992 23.1866 36.2538 23.5085 36.6136C23.8352 36.9687 24.2472 37.2339 24.7443 37.4091C25.2462 37.5795 25.786 37.6648 26.3636 37.6648C27.036 37.6648 27.6397 37.5559 28.1747 37.3381C28.7098 37.1155 29.1335 36.8078 29.446 36.4148C29.7585 36.017 29.9148 35.553 29.9148 35.0227C29.9148 34.5398 29.7798 34.1468 29.5099 33.8438C29.2401 33.5407 28.8849 33.2945 28.4446 33.1051C28.0043 32.9157 27.5284 32.75 27.017 32.608L25.2273 32.0966C24.0909 31.7699 23.1913 31.3035 22.5284 30.6974C21.8655 30.0914 21.5341 29.2983 21.5341 28.3182C21.5341 27.5038 21.7543 26.7936 22.1946 26.1875C22.6397 25.5767 23.2363 25.1032 23.9844 24.767C24.7372 24.4261 25.5777 24.2557 26.5057 24.2557C27.4432 24.2557 28.2765 24.4238 29.0057 24.7599C29.7348 25.0914 30.3125 25.5459 30.7386 26.1236C31.1695 26.7012 31.3968 27.357 31.4205 28.0909H29.7159ZM37.4982 39.2557C36.8069 39.2557 36.1796 39.1255 35.6161 38.8651C35.0527 38.5999 34.6052 38.2188 34.2738 37.7216C33.9424 37.2197 33.7766 36.6136 33.7766 35.9034C33.7766 35.2784 33.8997 34.7718 34.146 34.3835C34.3922 33.9905 34.7212 33.6828 35.1332 33.4602C35.5451 33.2377 35.9996 33.072 36.4968 32.9631C36.9987 32.8494 37.503 32.7595 38.0096 32.6932C38.6725 32.608 39.2099 32.544 39.6218 32.5014C40.0385 32.4541 40.3415 32.3759 40.5309 32.267C40.725 32.1581 40.8221 31.9687 40.8221 31.6989V31.642C40.8221 30.9413 40.6303 30.3968 40.2468 30.0085C39.868 29.6203 39.2927 29.4261 38.521 29.4261C37.7208 29.4261 37.0934 29.6013 36.6388 29.9517C36.1843 30.3021 35.8647 30.6761 35.68 31.0739L34.0891 30.5057C34.3732 29.8428 34.752 29.3267 35.2255 28.9574C35.7037 28.5833 36.2246 28.3229 36.788 28.1761C37.3562 28.0246 37.9149 27.9489 38.4641 27.9489C38.8145 27.9489 39.217 27.9915 39.6715 28.0767C40.1308 28.1572 40.5735 28.3253 40.9996 28.581C41.4305 28.8366 41.788 29.2225 42.0721 29.7386C42.3562 30.2547 42.4982 30.946 42.4982 31.8125V39H40.8221V37.5227H40.7369C40.6232 37.7595 40.4338 38.0128 40.1687 38.2827C39.9035 38.5526 39.5508 38.7822 39.1104 38.9716C38.6701 39.161 38.1327 39.2557 37.4982 39.2557ZM37.7539 37.75C38.4168 37.75 38.9755 37.6198 39.43 37.3594C39.8893 37.099 40.235 36.7628 40.467 36.3509C40.7037 35.9389 40.8221 35.5057 40.8221 35.0511V33.517C40.7511 33.6023 40.5948 33.6804 40.3533 33.7514C40.1166 33.8177 39.842 33.8769 39.5295 33.929C39.2217 33.9763 38.921 34.0189 38.6275 34.0568C38.3387 34.09 38.1043 34.1184 37.9244 34.142C37.4888 34.1989 37.0816 34.2912 36.7028 34.419C36.3287 34.5421 36.0257 34.7292 35.7937 34.9801C35.5664 35.2263 35.4528 35.5625 35.4528 35.9886C35.4528 36.571 35.6682 37.0114 36.0991 37.3097C36.5347 37.6032 37.0863 37.75 37.7539 37.75ZM45.5575 39V28.0909H47.2337V39H45.5575ZM46.4098 26.2727C46.0831 26.2727 45.8014 26.1615 45.5646 25.9389C45.3326 25.7164 45.2166 25.4489 45.2166 25.1364C45.2166 24.8239 45.3326 24.5563 45.5646 24.3338C45.8014 24.1113 46.0831 24 46.4098 24C46.7365 24 47.0159 24.1113 47.2479 24.3338C47.4846 24.5563 47.603 24.8239 47.603 25.1364C47.603 25.4489 47.4846 25.7164 47.2479 25.9389C47.0159 26.1615 46.7365 26.2727 46.4098 26.2727ZM50.3036 39V28.0909H51.9229V29.7386H52.0366C52.2354 29.1989 52.5953 28.7609 53.1161 28.4247C53.637 28.0885 54.2241 27.9205 54.8775 27.9205C55.0006 27.9205 55.1545 27.9228 55.3391 27.9276C55.5238 27.9323 55.6635 27.9394 55.7582 27.9489V29.6534C55.7013 29.6392 55.5711 29.6179 55.3675 29.5895C55.1687 29.5563 54.958 29.5398 54.7354 29.5398C54.2051 29.5398 53.7317 29.651 53.315 29.8736C52.9031 30.0914 52.5763 30.3944 52.3349 30.7827C52.0981 31.1662 51.9798 31.6042 51.9798 32.0966V39H50.3036Z" fill="#3C4954"/>
<path d="M84.4141 32.5974L77.8516 38.5037C77.2656 39.031 76.25 38.6619 76.25 37.906V34.531H70.9375C70.418 34.531 70 34.1548 70 33.6873V30.3123C70 29.8447 70.418 29.4685 70.9375 29.4685H76.25V26.0935C76.25 25.3412 77.2617 24.9685 77.8516 25.4959L84.4141 31.4021C84.7773 31.7326 84.7773 32.267 84.4141 32.5974ZM72.5 38.3279V36.9216C72.5 36.6896 72.2891 36.4998 72.0312 36.4998H68.75C68.0586 36.4998 67.5 35.997 67.5 35.3748V28.6248C67.5 28.0025 68.0586 27.4998 68.75 27.4998H72.0312C72.2891 27.4998 72.5 27.3099 72.5 27.0779V25.6716C72.5 25.4396 72.2891 25.2498 72.0312 25.2498H68.75C66.6797 25.2498 65 26.7615 65 28.6248V35.3748C65 37.2381 66.6797 38.7498 68.75 38.7498H72.0312C72.2891 38.7498 72.5 38.5599 72.5 38.3279Z" fill="#3C4954"/>
<rect x="0.5" y="0.5" width="104" height="107" rx="4.5" stroke="#9747FF" stroke-dasharray="10 5"/>
</svg>
